# xmcd CD database file
#
# Track frame offsets:
#	182
#	33507
#	105970
#
# Disc length: 2401 seconds
#
# Revision: 8
# Processed by: cddbd v1.5.2PL0 Copyright (c) Steve Scherf et al.
# Submitted via: CDex 1.51
#
DISCID=18095f03
DTITLE=John Coltrane - The Complete Africa,Brass Sessions - CD 2
DYEAR=1961
DGENRE=Jazz
TTITLE0=Blues minor
TTITLE1=Africa (alternate take)
TTITLE2=Africa
EXTD=YEAR: 1961
EXTT0=
EXTT1=
EXTT2=
PLAYORDER=
